<svg width="101" height="101" viewBox="0 0 101 101" fill="none" xmlns="http://www.w3.org/2000/svg">
<path d="M86.6098 41.598C90.164 42.7827 93.0074 44.9153 95.14 47.9956C97.2725 50.839 98.3388 54.0378 98.3388 57.5921C98.5757 61.1463 97.6279 64.7005 95.4954 68.2548C93.5998 71.5721 90.5195 74.4155 86.2544 76.785C79.3828 80.3392 73.3406 81.287 68.1278 79.6283C62.9149 77.7328 59.2422 74.8894 57.1096 71.0982C55.9249 69.2026 54.9771 66.5961 54.2662 63.2788C53.7923 59.9616 53.5554 56.5258 53.5554 52.9716C53.7923 49.1804 54.2662 45.5077 54.9771 41.9534C55.6879 38.3992 56.7542 35.4373 58.1759 33.0678C59.3606 31.4092 60.7823 29.6321 62.441 27.7365C63.8627 26.0778 65.5213 24.4192 67.4169 22.7605C69.5494 21.1019 71.9189 19.5617 74.5254 18.14L86.9652 18.8509C85.3066 20.7465 83.7664 22.5236 82.3447 24.1822C81.16 25.6039 80.0937 26.9071 79.1459 28.0919C78.1981 29.2766 77.2503 30.3429 76.3025 31.2907C74.6439 32.9493 73.3406 34.608 72.3928 36.2666C71.445 37.6883 70.6157 39.2285 69.9049 40.8871C69.431 42.5458 69.431 44.2044 69.9049 45.8631C72.9852 42.5458 76.5395 40.8871 80.5676 40.8871C82.4632 40.8871 84.4773 41.1241 86.6098 41.598ZM37.5613 43.3751C40.8786 45.2707 43.2481 47.8771 44.6698 51.1944C46.3284 54.2748 46.9208 57.5921 46.4469 61.1463C45.973 64.7005 44.4328 68.0178 41.8264 71.0982C39.4569 74.1785 35.9027 76.548 31.1637 78.2066C23.8182 80.5761 17.776 80.4577 13.037 77.8512C8.29806 75.0078 5.09925 71.5721 3.4406 67.5439C2.72975 65.4114 2.37433 62.6865 2.37433 59.3692C2.37433 56.0519 2.72975 52.6161 3.4406 49.0619C4.15145 45.5077 5.09925 42.0719 6.28399 38.7546C7.46874 35.4373 9.00891 32.7124 10.9045 30.5799C12.3262 28.9212 13.9848 27.381 15.8804 25.9593C17.5391 24.7746 19.4347 23.4714 21.5672 22.0497C23.9367 20.628 26.5432 19.3248 29.3865 18.14L41.8264 21.3388C39.9308 22.9975 38.1537 24.4192 36.495 25.6039C35.0733 26.7887 33.7701 27.8549 32.5854 28.8027C31.4006 29.7505 30.2159 30.6983 29.0311 31.6461C27.3725 33.0678 25.9508 34.4895 24.766 35.9112C23.5813 37.096 22.515 38.5177 21.5672 40.1763C20.6194 41.598 20.264 43.1382 20.5009 44.7968C22.3965 43.3751 24.2921 42.5458 26.1877 42.3088C28.3203 41.8349 30.2159 41.7165 31.8745 41.9534C33.7701 42.1904 35.6657 42.6643 37.5613 43.3751Z" fill="#7e22ce"/>
</svg>
